<svg xmlns="http://www.w3.org/2000/svg" viewBox="0 0 24 24" role="img" aria-labelledby="title"><title>Facebook</title><path fill="#1877F2" d="M22 12.07C22 6.48 17.52 2 12 2S2 6.48 2 12.07c0 5.02 3.66 9.18 8.44 9.93v-7.03H7.9v-2.9h2.54V9.85c0-2.52 1.5-3.92 3.78-3.92 1.1 0 2.24.2 2.24.2v2.47h-1.26c-1.24 0-1.63.78-1.63 1.57v1.89h2.77l-.44 2.9h-2.33V22c4.78-.75 8.43-4.91 8.43-9.93z"/><path fill="#fff" d="M15.9 14.97l.44-2.9h-2.77v-1.9c0-.79.39-1.56 1.63-1.56h1.26V6.13s-1.14-.2-2.24-.2c-2.28 0-3.78 1.4-3.78 3.92v2.22H7.9v2.9h2.54V22c.51.08 1.03.12 1.56.12.53 0 1.05-.04 1.56-.12v-7.03h2.33z"/></svg>