<svg xmlns="http://www.w3.org/2000/svg" viewBox="0 0 24 24" role="img" aria-labelledby="title"><title>Instagram</title><path fill="#E4405F" d="M7.75 2h8.5A5.75 5.75 0 0 1 22 7.75v8.5A5.75 5.75 0 0 1 16.25 22h-8.5A5.75 5.75 0 0 1 2 16.25v-8.5A5.75 5.75 0 0 1 7.75 2zm0 1.8A3.95 3.95 0 0 0 3.8 7.75v8.5a3.95 3.95 0 0 0 3.95 3.95h8.5a3.95 3.95 0 0 0 3.95-3.95v-8.5a3.95 3.95 0 0 0-3.95-3.95h-8.5z"/><path fill="#E4405F" d="M12 7a5 5 0 1 1 0 10 5 5 0 0 1 0-10zm0 1.8a3.2 3.2 0 1 0 0 6.4 3.2 3.2 0 0 0 0-6.4zM17.35 6.1a1.2 1.2 0 1 1 0 2.4 1.2 1.2 0 0 1 0-2.4z"/></svg>